<svg id="Layer_4" data-name="Layer 4" xmlns="http://www.w3.org/2000/svg" viewBox="0 0 228.85 242.44"><defs><style>.cls-1{stroke:#000;stroke-miterlimit:10;stroke-width:4px;}</style></defs><title>greenicon_umbrella_BLACK</title><path class="cls-1" d="M125.19,176.38V125.74c0-1.81,0-1.8-1.76-1.22-4.62,1.53-9.3,2.88-13.84,4.61a55.46,55.46,0,0,0-16.86,9.94c-3.47,3-6.42,3-9.49-.4-4.62-5.12-9.94-9.21-16.58-11.26-13.35-4.12-25.59-2.14-36.42,7-2.16,1.83-3.92,4-5.95,6s-4.93,1.91-6.51-.34A5,5,0,0,1,17,137,109.49,109.49,0,0,1,28.56,87.51a117.79,117.79,0,0,1,17-24.79A109.92,109.92,0,0,1,74.6,39.07,112.26,112.26,0,0,1,91,31.7a116.19,116.19,0,0,1,22-5.45c3.41-.53,6.85-.84,10.27-1.28,1.27-.16,2.1-.63,2-2.22-.12-3.18-.06-6.36,0-9.54A4.37,4.37,0,0,1,127.75,9a4,4,0,0,1,4.46.64,4.33,4.33,0,0,1,1.52,3.54c0,3.18.05,6.36,0,9.54,0,1.11.4,1.45,1.42,1.73,6.89,1.82,14,2.37,20.94,4.19a128.2,128.2,0,0,1,24.82,9.56,117.29,117.29,0,0,1,16.66,10.07A102.43,102.43,0,0,1,228.82,85a122.05,122.05,0,0,1,9,23.75,101.6,101.6,0,0,1,3.62,19.4c.22,3.11.43,6.23.4,9.36a3.92,3.92,0,0,1-2.31,4,3.85,3.85,0,0,1-4.65-.85c-1.35-1.33-2.57-2.79-3.9-4.14a37.66,37.66,0,0,0-43.5-7.26,34.59,34.59,0,0,0-10.46,8,28.84,28.84,0,0,1-2.25,2.31c-2.86,2.56-4.79,2.59-7.7.11a59.11,59.11,0,0,0-8.18-6,55,55,0,0,0-19-7.28c-1.7-.29-3.46-.27-5.2-.42-.7-.06-1.08.15-1,.92,0,.41,0,.83,0,1.24q0,48.87,0,97.74A21,21,0,0,1,111.1,247c-10-.69-18.54-9.44-19-19.33a7.27,7.27,0,0,1,.22-3.31,4.31,4.31,0,0,1,3.9-2.55,4.54,4.54,0,0,1,3.92,3,18.1,18.1,0,0,1,.49,3.65,12.39,12.39,0,0,0,24.41-.31,23.7,23.7,0,0,0,.14-3.68Q125.21,200.4,125.19,176.38ZM233.12,125.6c-8.71-57.42-52-87.13-94.1-91.78-.05.36.22.56.39.8,4,5.87,8.3,11.59,11.94,17.72a188.43,188.43,0,0,1,11.31,22.27,169.55,169.55,0,0,1,7.4,22.06,156,156,0,0,1,4.58,28.75c.09,1.16.37,1.37,1.34.78,1.36-.82,2.74-1.61,4.11-2.4a50.59,50.59,0,0,1,21.25-7c8-.68,15.61,1.36,22.91,4.53C227.18,122.63,230,124.12,233.12,125.6Zm-207.38.05a8.54,8.54,0,0,0,1.28-.4c2.43-1.21,4.82-2.5,7.27-3.68,12.48-6,25.14-6.48,38-1.13a65.28,65.28,0,0,1,9.67,5.31c1.08.69,1.41.38,1.66-.79,2.06-9.86,4.14-19.72,6.4-29.54A118.31,118.31,0,0,1,100.51,66c4.31-8.11,8.9-16,13.53-24,1.54-2.63,3-5.29,4.57-8.05C74.72,39.56,34.19,70.57,25.74,125.65Zm66.72,2c.24,0,.35.07.43,0,.38-.16.75-.33,1.12-.51,6-3,12.06-6.1,18.63-7.92a59.51,59.51,0,0,1,28.22-1.39,75.31,75.31,0,0,1,18.82,6.43c2.16,1.09,4.35,2.11,6.78,3.29-.91-7.34-1.73-14.33-3.17-21.25A160.12,160.12,0,0,0,144.18,57a183,183,0,0,0-14.07-20.33c-.56-.7-.82-.71-1.33,0-1.09,1.48-2.28,2.9-3.38,4.38a175.07,175.07,0,0,0-17.62,29,152.68,152.68,0,0,0-7.52,18.81,156.36,156.36,0,0,0-6.36,27.73Z" transform="translate(-15.01 -6.56)"/></svg>