<svg xmlns="http://www.w3.org/2000/svg" viewBox="0 0 236.21 241.15"><defs><style>.cls-1,.cls-3,.cls-5{fill:none;}.cls-1,.cls-2,.cls-4{stroke:#000;}.cls-1,.cls-2,.cls-3,.cls-4,.cls-5{stroke-miterlimit:10;}.cls-1{stroke-width:16px;}.cls-2,.cls-5{stroke-width:12px;}.cls-3{stroke:#ff74fd;}.cls-4{stroke-width:6px;}.cls-5{stroke:#53a351;}</style></defs><title>greenicon_house_BLACK</title><g id="Layer_2" data-name="Layer 2"><path class="cls-1" d="M102.36,238.68a2.3,2.3,0,0,1-2.3,2.3H55.29a8.17,8.17,0,0,1-8.18-8.17q0-48.65,0-97.3a3.79,3.79,0,0,1,1.43-3.15Q87.14,98.23,125.7,64.07c2.5-2.21,2.52-2.19,5,0q38,33.69,76.1,67.36a7.31,7.31,0,0,1,2.48,5.49q-.08,49,0,98c0,3.69-1.32,5.56-4.2,6a10.09,10.09,0,0,1-1.35,0c-15.89,0-31.78,0-47.66.05-1.81,0-2.14-.64-2.13-2.24q.06-20.43,0-40.85a13.84,13.84,0,0,0-.29-3.47c-.55-2.08-2.44-3.3-5-3.31-7,0-14,0-21,0-6.48,0-13,0-19.45,0-3.94,0-5.82,1.89-5.83,5.86q0,20.61,0,41.24Z" transform="translate(-9.79 -7.87)"/><path class="cls-2" d="M47.2,56.41v-37a5.48,5.48,0,0,1,5.48-5.49H70.42a5.47,5.47,0,0,1,5.48,5.5v.05c0,3.31,0,6.61-.14,9.91a3.37,3.37,0,0,1-.85,2.2Q61.58,43.71,48.12,55.78C47.93,56,47.7,56.07,47.2,56.41Z" transform="translate(-9.79 -7.87)"/><path class="cls-3" d="M107.08,230.86" transform="translate(-9.79 -7.87)"/><path class="cls-4" d="M241.12,115.45c-1.22-1.08-34.38-31.85-45-41.33a5.55,5.55,0,0,0-.48-.49l-3.51-3.11L154.43,37.09,129.32,14.85a6,6,0,0,0-.58-.47,1.67,1.67,0,0,0-.24-.16h0a1.3,1.3,0,0,0-.32-.15h-.06a.85.85,0,0,0-.23,0,.83.83,0,0,0-.22,0h-.06a1.3,1.3,0,0,0-.32.15h0a1.67,1.67,0,0,0-.24.16,6,6,0,0,0-.58.47L101.36,37.09,63.62,70.52l-3.51,3.11a5.55,5.55,0,0,0-.48.49c-10.58,9.48-43.74,40.25-45,41.33a5.56,5.56,0,0,0-.48,7.84l.08.09a5.57,5.57,0,0,0,7.85.48C38.86,109,93.45,59.2,116.52,38.7l7.7-6.82a5.52,5.52,0,0,1,7.35,0l7.7,6.82c23.07,20.5,77.66,70.32,94.41,85.16a5.57,5.57,0,0,0,7.85-.48l.08-.09A5.56,5.56,0,0,0,241.12,115.45Z" transform="translate(-9.79 -7.87)"/><path class="cls-5" d="M119.35,168.27" transform="translate(-9.79 -7.87)"/></g><g id="Layer_5" data-name="Layer 5"><path class="cls-4" d="M52.2,45V20.73a3.59,3.59,0,0,1,3.59-3.59H67.41A3.58,3.58,0,0,1,71,20.74v0c0,2.16,0,4.33-.09,6.49a2.18,2.18,0,0,1-.56,1.43q-8.74,8-17.55,15.89C52.68,44.7,52.52,44.78,52.2,45Z" transform="translate(-9.79 -7.87)"/></g></svg>