<svg xmlns="http://www.w3.org/2000/svg" viewBox="0 0 239 239"><defs><style>.cls-1,.cls-2{fill:none;stroke-miterlimit:10;}.cls-1{stroke:#000;stroke-width:11px;}.cls-2{stroke:#53a351;stroke-width:6px;}</style></defs><title>greenicon_wrench_BLACK</title><g id="Layer_2" data-name="Layer 2"><path class="cls-1" d="M21.6,231.71a31.91,31.91,0,0,0,15.29,7.59c14.49,3.08,24.16-4.42,33-14.56q46.59-53.31,93.71-106.15c1.92-2.15,6.64-3.47,9.51-2.81,16.7,3.85,31.76,1.06,45.54-9.12,18.4-13.58,27.68-44.33,17.32-62.44-2.23,2.06-5.77,5.7-7.81,7.73-7.59,7.52-15.29,14.94-22.63,22.7-4.47,4.72-8.24,4.86-12.68.08-2.29-2.46-4.62-4.91-7-7.3h0c-.16-.16-.34-.32-.5-.49l-.49-.5h0c-2.39-2.38-4.84-4.71-7.31-7-4.78-4.44-4.63-8.21.09-12.68,7.75-7.35,15.18-15,22.7-22.64,2-2,5.67-5.57,7.73-7.8C190,6,159.24,15.24,145.66,33.64c-10.18,13.78-13,28.84-9.12,45.54.66,2.87-.66,7.59-2.81,9.51Q80.93,135.85,27.58,182.4c-10.14,8.87-17.64,18.54-14.56,33a31.91,31.91,0,0,0,7.59,15.29Z" transform="translate(-6.82 -6.5)"/><path class="cls-2" d="M21.09,231.23" transform="translate(-6.82 -6.5)"/></g><g id="Layer_3" data-name="Layer 3"><path d="M42.7,192.6c-10,.05-18.36,8-18.59,17.69a18.38,18.38,0,0,0,17.72,18.5,18.18,18.18,0,0,0,18.71-18.36C60.61,200,53.2,192.55,42.7,192.6Z" transform="translate(-6.82 -6.5)"/></g></svg>