<svg xmlns="http://www.w3.org/2000/svg" viewBox="0 0 247 184.12"><defs><style>.cls-1{fill:none;stroke-width:12px;}.cls-1,.cls-2,.cls-3{stroke:#000;stroke-miterlimit:10;}.cls-3{fill:#fff;}</style></defs><title>greenicon_school_BLACK</title><g id="Layer_2_copy" data-name="Layer 2 copy"><path class="cls-1" d="M50.28,103.11l-8.43-2.9L26,94.81A4.42,4.42,0,0,1,26,86.23L81,67.89q25.83-8.61,51.66-17.23a5.39,5.39,0,0,1,3.59,0Q189.58,68.45,242.87,86.2c2.7.9,4,3.22,3.25,5.65a4.25,4.25,0,0,1-2.78,2.84c-3.53,1.21-7.08,2.37-10.62,3.55q-48.24,16.1-96.5,32.18a5.38,5.38,0,0,1-3.52,0Q105,121.22,77.23,112.06l-2.63-.85c2.48-1.07-13.23-5.14-10.89-6.06q19.93-7.86,39.89-15.63C103,90,117,84,117,84l5-2s15.78-4.25,13.47-4.7a6.09,6.09,0,0,0-3,.16c-7.83,2.73-15.67,5.45-23.42,8.38-9.11,3.45-18.21,6.94-27.18,10.72a140.87,140.87,0,0,0-16.37,7.68c-6.29,3.66-22.18,18.6-20.88,33,0,5.54-.57,7.71-1.05,12.31a1.41,1.41,0,0,0,.7,1.44c5,3.55,6.32,9.69,3.15,14.69a17.85,17.85,0,0,1-2.82,3.08,1.17,1.17,0,0,0-.42,1.13c.59,4.48,1.29,8.95,1.68,13.45a82.14,82.14,0,0,1,.2,16c-.76,7.14-3.32,13.52-8.55,18.62a15.34,15.34,0,0,1-7.59,4.46,5.48,5.48,0,0,1-2.67-.11,56.25,56.25,0,0,1-14.95-7.66c-1.19-.85-1.2-1.19-.2-2.28,1.54-1.68,3.14-3.32,4.69-5a60.44,60.44,0,0,0,12.17-20,75.71,75.71,0,0,0,3.83-15.71,1.28,1.28,0,0,0-.77-1.53,11.77,11.77,0,0,1,.3-20.47,1.1,1.1,0,0,0,.65-1c.61-6.82,1.62-13.56,4.12-20,1.21-3.11,10.16-21.71,12.21-24.35C49.55,103.87,49.89,103.55,50.28,103.11Z" transform="translate(-5.34 -44.35)"/><path class="cls-1" d="M207,128.89v1c0,9.77-.08,19.54,0,29.3a15.45,15.45,0,0,1-4.59,11.28,39.8,39.8,0,0,1-12,8.2,93.22,93.22,0,0,1-19.36,6.5,142.87,142.87,0,0,1-18,2.93,178.05,178.05,0,0,1-26.23.66,157.16,157.16,0,0,1-24.27-3,95,95,0,0,1-22.69-7.38A40.57,40.57,0,0,1,69,171c-.21-.2-.41-.41-.61-.63l-.63-.72,1.15-1.41c3.59-4.29,4.53-9.21,3.42-14.59a16.57,16.57,0,0,0-7.53-11.16.8.8,0,0,1-.39-.54,37,37,0,0,1,1.44-12c.06-.16.13-.31.22-.53l3.15,1,46.13,15.44c5.18,1.74,10.36,3.49,15.55,5.2a14.07,14.07,0,0,0,8.91,0q27.33-9,54.63-18.12l12-3.95Z" transform="translate(-5.34 -44.35)"/></g><g id="Layer_3" data-name="Layer 3"><rect class="cls-2" x="21.66" y="106.65" width="19" height="19"/><rect class="cls-2" x="10.66" y="157.65" width="28" height="16"/><rect class="cls-2" x="21.66" y="125.65" width="19" height="38"/></g><g id="Layer_4" data-name="Layer 4"><circle class="cls-3" cx="32.16" cy="115.15" r="8.5"/></g></svg>