<svg id="cAROUTLINE" xmlns="http://www.w3.org/2000/svg" viewBox="0 0 240.83 187.7"><defs><style>.cls-1{fill:none;}.cls-1,.cls-2{stroke:#000;stroke-miterlimit:10;stroke-width:12px;}</style></defs><title>greenicon_car_BLACK</title><path class="cls-1" d="M29.57,216c-3.88-2.08-4.95-5.23-4.91-9.43.2-19.79.08-39.58.09-59.36,0-6.24-.64-12.56,3-18.61-3.13,0-5.78,0-8.44,0-4.75-.05-7-2.8-5.76-7.23a60.35,60.35,0,0,1,3.07-8.77c2-4.36,5.79-6.39,10.65-6.59,2.76-.11,5.52,0,8.42,0,2.62-7.09,5.14-14.19,7.86-21.22,3.3-8.54,6.57-17.11,10.23-25.52,2.24-5.15,6.93-8.13,12.1-10.32,3.43-1.45,6.82-3.19,10.43-4a122.91,122.91,0,0,1,18.82-3.1c13-.87,26-1.55,39-1.52,10.12,0,20.25,1.22,30.36,1.93a74.43,74.43,0,0,1,24.7,6.18,24.64,24.64,0,0,1,14,15c4.9,13.77,10.28,27.38,15.56,41a3.24,3.24,0,0,0,2.26,1.44,22.2,22.2,0,0,0,4.54.06c7.84-.37,12.16,2.82,14.49,9.84.63,1.92,1.17,3.86,1.71,5.8,1.07,3.92-1.1,6.78-5.31,7-1.42.07-2.85,0-4.28,0h-4.72c4.27,7.32,2.9,15,3,22.46.12,18.5-.07,37,.13,55.51,0,4.2-1,7.35-4.91,9.43H189.71c-4.24-2.16-5.57-5.68-5.39-10.07.15-3.81,0-7.63,0-11.38H70.81c0,3.88-.13,7.64,0,11.38.19,4.39-1.15,7.91-5.39,10.07ZM193.76,104.5c-1.51-4.8-2.8-9.54-4.5-14.15C187,84.2,184.09,78.21,182.06,72c-1.35-4.16-4.57-6-8.57-7.09-10.66-2.87-21.73-3.64-32.74-3.86-13.09-.26-26.24-.78-39.29.77-6.67.79-13.38,1.47-19.95,2.71-3.87.73-7.49,2.45-9.12,6.19-4.82,11-9.22,22.16-12.08,33.74C80.08,113.41,172.74,113.45,193.76,104.5Z" transform="translate(-7.17 -34.3)"/><path class="cls-2" d="M200.19,151.15c4.37-.85,7.3-2.93,6.74-8.51-.23-2.37,0-4.78-.05-7.18a6.26,6.26,0,0,0-6.12-6.35c-5.32-.39-10.1,1.5-14.79,3.63-6.14,2.79-12.24,5.69-18.25,8.77a5.58,5.58,0,0,0-2.9,6.08c.85,3.09,2.44,4.46,5.54,4.67,4,.28,12,.5,16,.75Z" transform="translate(-7.17 -34.3)"/><path class="cls-2" d="M69.66,153c4-.25,12-.47,16-.75,3.1-.21,4.69-1.58,5.54-4.67a5.58,5.58,0,0,0-2.9-6.08c-6-3.08-12.11-6-18.25-8.77-4.69-2.13-9.47-4-14.79-3.63a6.26,6.26,0,0,0-6.12,6.35c0,2.4.18,4.81,0,7.18-.56,5.58,2.37,7.66,6.74,8.51Z" transform="translate(-7.17 -34.3)"/></svg>