<svg id="Layer_2" data-name="Layer 2" xmlns="http://www.w3.org/2000/svg" viewBox="0 0 241.73 245.23"><defs><style>.cls-1{stroke:#000;stroke-miterlimit:10;stroke-width:4px;}</style></defs><title>greenicon_retirement_BLACK</title><path class="cls-1" d="M72.51,195.18l17.15-34.31c-3,0-5.43.06-7.83,0-10.62-.32-17.55-7.2-18.09-17.78C62.5,119,59.65,95.17,50.54,72.61A99.67,99.67,0,0,0,40.42,54c-2.37-3.48-6.07-6.36-9.73-8.6-10.1-6.17-13.42-18-7.42-28.16C29,7.61,41,4.87,51,11.13c13.09,8.21,22.16,20.09,29.15,33.54,4.27,8.21,7.73,16.87,11.2,25.48,1,2.58,2.16,3.48,4.94,3.47q34.3-.16,68.63-.05c13.68,0,22.45,9.55,21.56,23.18-.23,3.55-2.63,6-5.8,6-3,0-6-2.41-5.7-5.67,1.09-11.57-7.67-13.07-17.33-11.36v34.51c1.62,0,3.12,0,4.61,0,7.88.07,15.79-.25,23.64.32a19.91,19.91,0,0,1,18.19,20.53A20.25,20.25,0,0,1,184.29,161c-5.52.15-11,0-17.35,0l17.19,34.68a138.15,138.15,0,0,0,27.24-16.43c3-2.21,6.14-4.47,9.58-5.65,9.31-3.18,19.24,1.27,23.91,10.14A20.07,20.07,0,0,1,239.52,209c-14.49,11.89-30.29,21.69-48,28C128.4,259.49,70.2,250.61,17.5,208.61c-9.35-7.45-10.64-19.73-3.33-28.93,7-8.79,19.08-10.24,28.37-3.13S61.3,190.24,72.51,195.18Zm55.61,42A162.51,162.51,0,0,0,232,199.8c4.11-3.42,4.84-8.49,1.92-12.37S225.83,183,221.5,186c-1.06.74-2.06,1.56-3.07,2.36-47,37-113,41.33-164.36,10.72-6.52-3.89-12.52-8.65-18.76-13-3.27-2.29-6.73-2.72-10.15-.57-3.25,2-5.05,5.28-3.87,8.92a15,15,0,0,0,4.83,6.66C55.92,225,90,236.82,128.12,237.21Zm4-87.78v0h40.7c3.62,0,7.24.09,10.85,0a8.76,8.76,0,0,0,8.7-8.64c.06-4.75-3.43-8.32-8.55-8.69-1.29-.09-2.58-.06-3.88-.06q-39.93,0-79.86,0c-6.17,0-7.69-1.36-8.5-7.06-.93-6.51-1.76-13-3-19.52C84.51,83.55,77.93,62.58,66,43.59c-5.52-8.82-12-16.85-21-22.44-4.58-2.84-9.23-2-11.62,1.73a8.55,8.55,0,0,0,3.11,12.38C45,39.94,50.66,47.17,55.25,55.4A130.55,130.55,0,0,1,69.89,98C72.34,112.91,73.68,128,75.36,143c.53,4.71,2.19,6.48,6.75,6.47Q107.12,149.39,132.12,149.43ZM91.43,183.61,83.6,200.2c30.18,10.86,59.77,10,89.76,0-2.08-4.13-4.11-7.86-5.84-11.71-1.09-2.43-2.29-3.09-5-2.3a113,113,0,0,1-33.64,4.32A121.45,121.45,0,0,1,91.43,183.61Zm5.34-10.56a104.59,104.59,0,0,0,63.44,1.44c-2.07-4.08-3.85-7.91-6-11.55a4.13,4.13,0,0,0-3.13-1.51q-23-.15-46,0a4.22,4.22,0,0,0-3.16,1.44C100.06,166.05,98.55,169.45,96.77,173.05Zm31.75-87.26v34.6h16.94V85.79Zm-12.2,34.7V85.85H96.58c2.24,11.65,4.43,23.08,6.65,34.64Z" transform="translate(-7.47 -5.77)"/></svg>