<svg id="Final" xmlns="http://www.w3.org/2000/svg" viewBox="0 0 164.07 50"><defs><style>.cls-1{fill:#fff;}</style></defs><title>greenlogo_WHITE</title><path class="cls-1" d="M79.9,113.76l-7.2-1.41a19.12,19.12,0,0,0-2.47-.45c-1-.05-1-.57-.81-1.28.63-2.72,1.27-5.43,1.87-8.16.18-.79.48-1,1.33-.82q8.49,1.77,17,3.39a1.9,1.9,0,0,1,1.68,1.55,17.59,17.59,0,0,1-1.68,13.65c-3.23,6-8.2,9.74-15,10.53A22.74,22.74,0,0,1,49.92,113.2c-2.49-11.67,5-23.73,16.62-26.4A23.24,23.24,0,0,1,84.3,89.51c1.47.89,1.43.95.51,2.38-1.5,2.32-3,4.64-4.49,7-.21.33-.45.64-.72,1A13.68,13.68,0,0,0,72,97c-4.44,0-7.73,2.65-9.4,6.61a10.61,10.61,0,0,0,2.09,11.56,9.53,9.53,0,0,0,13.38.85A15.18,15.18,0,0,0,79.9,113.76Z" transform="translate(-49.44 -83)"/><path class="cls-1" d="M193.15,102.48c.6-.31.95-.47,1.29-.66a21,21,0,0,1,9.36-2.67c5.34-.2,9.26,2.84,9.56,8.52s.07,11.1,0,16.64c0,1.76-.19,3.51-.19,5.27,0,.91-.24,1.28-1.22,1.25-2.64-.06-5.28-.05-7.92,0-1,0-1.32-.29-1.31-1.29.06-4.12.09-8.24,0-12.36a24.06,24.06,0,0,0-.47-4.39c-.56-2.64-2.38-4-4.73-3.79a4.62,4.62,0,0,0-4.34,4.85c0,5.16,0,10.32,0,15.48,0,1.11-.24,1.55-1.45,1.51-2.56-.09-5.12-.06-7.68,0-.9,0-1.28-.2-1.27-1.2q0-14.4,0-28.79c0-1,.36-1.27,1.28-1.26,2.52,0,5,0,7.56,0,1.06,0,1.47.32,1.35,1.37A10.64,10.64,0,0,0,193.15,102.48Z" transform="translate(-49.44 -83)"/><path class="cls-1" d="M160.49,117.49a5.82,5.82,0,0,0,6.2,4.78,7.49,7.49,0,0,0,5.31-2.39,1.09,1.09,0,0,1,.93-.17c2.2.58,4.38,1.25,6.58,1.83,1,.25.83.78.53,1.44a13.58,13.58,0,0,1-7.88,7.12c-9.84,3.85-19.52-2.4-21.62-12.09-1-4.81-.48-9.4,2.91-13.28a15,15,0,0,1,10.6-5.14,17.83,17.83,0,0,1,9,1.26c4.93,2.3,7.24,6.41,7.92,11.62.14,1.1.13,2.23.25,3.34s-.37,1.35-1.39,1.34c-3.64,0-7.28,0-10.92,0-2.63,0-5.27.12-7.9.19A2.64,2.64,0,0,0,160.49,117.49Zm9.84-7.17c.14-2.09-1.58-3.64-4.27-3.91s-5.27,1.64-5.49,3.91Z" transform="translate(-49.44 -83)"/><path class="cls-1" d="M128,117.48a5.82,5.82,0,0,0,6.22,4.79,7.48,7.48,0,0,0,5.3-2.4,1.12,1.12,0,0,1,.93-.18c2.15.58,4.29,1.23,6.45,1.79,1,.26,1,.74.65,1.56a13.84,13.84,0,0,1-7.93,7.09c-9.91,3.83-19.46-2.59-21.54-12.07-1-4.65-.53-9.08,2.56-12.91a14.82,14.82,0,0,1,10.88-5.56c3.54-.26,7,0,10.22,1.83,4.35,2.53,6.27,6.53,6.83,11.34a31.23,31.23,0,0,1,.17,3.21c0,.87-.44,1.2-1.37,1.19-3.6,0-7.2,0-10.79,0-2.68,0-5.35.12-8,.19A2.63,2.63,0,0,0,128,117.48Zm0-7.15h9.85a3.75,3.75,0,0,0-3.32-3.75C131.4,106,128.84,107.43,128.05,110.33Z" transform="translate(-49.44 -83)"/><path class="cls-1" d="M104.08,102.26c.83-.52,1.48-1,2.16-1.34A9.74,9.74,0,0,1,118.1,102a1.77,1.77,0,0,1,.56,2.47c-1.18,2.39-2.2,4.87-3.28,7.3-.13,0-.23,0-.28,0-4.34-3.76-9.55-2-10.59,3.62a43,43,0,0,0-.52,6.42c-.08,2.6,0,5.2,0,7.8,0,.85-.22,1.22-1.14,1.2-2.8-.05-5.6,0-8.4,0-.83,0-1.12-.28-1.12-1.11q0-14.4,0-28.79c0-.91.34-1.17,1.2-1.16,2.6,0,5.2,0,7.8,0,1.58,0,1.58,0,1.65,1.64C104,101.61,104,101.81,104.08,102.26Z" transform="translate(-49.44 -83)"/><path class="cls-1" d="M75.8,86.44,66,87.85a.48.48,0,0,1-.49-.72l2.34-3.9a.49.49,0,0,1,.41-.23h8.89a.48.48,0,0,1,.42.72l-1.43,2.49A.49.49,0,0,1,75.8,86.44Z" transform="translate(-49.44 -83)"/><path class="cls-1" d="M65.36,129.55l9.49-1.37a.6.6,0,0,1,.6.9l-2.18,3.63a.58.58,0,0,1-.51.29H64.14a.6.6,0,0,1-.52-.9l1.3-2.26A.61.61,0,0,1,65.36,129.55Z" transform="translate(-49.44 -83)"/></svg>