<svg xmlns="http://www.w3.org/2000/svg" viewBox="0 0 251.78 207.2"><defs><style>.cls-1,.cls-3{fill:none;}.cls-1,.cls-2,.cls-3{stroke:#000;stroke-miterlimit:10;}.cls-1{stroke-width:12px;}.cls-2{stroke-width:2px;}.cls-3{stroke-width:11px;}</style></defs><title>greenicon_loan_BLACK</title><g id="HandThicc"><path class="cls-1" d="M127.5,186.5c25,1,23.79,1.79,35.2,1.57,4.26-.08,9.09.13,12.58-1.77,2.82-1.54,5.51-6.07,5.47-9.24,0-2.79-3.46-6.22-6.24-8.09-2.41-1.62-6-1.6-9.11-2.06-18.68-2.73-37.4-5.23-56.06-8.15-9.39-1.48-17.6-.32-25.72,5.39A188.85,188.85,0,0,1,54.56,181C41.19,187.19,27.21,192,12,198c3.61,4.49,6.42,9.05,10.23,12.53,9.53,8.72,21.38,13.22,33.63,16.54,1.66.45,4.2-.62,5.74-1.77,10.92-8.17,23.21-13.14,36.69-13.28,20.28-.2,40.58.58,60.84,1.46a29.08,29.08,0,0,0,15.69-3.76C195,199,215.34,188.64,235.64,178.18c2.8-1.43,6.08-2.15,8.49-4,1.91-1.5,4.1-4.43,3.85-6.45-.29-2.42-2.6-5.71-4.81-6.53a24.93,24.93,0,0,0-12.09-1.32c-7.16,1.16-14.17,3.35-21.19,5.27-7.91,2.17-15.78,4.52-23.55,6.76,1.72,11.76-2.58,18.26-12.89,20.89C173.45,192.76,111.5,194.5,127.5,186.5Z" transform="translate(-2.22 -26)"/></g><g id="Coin1"><path class="cls-2" d="M123.68,56.78c.66-6.38,1.45-7.83,4.19-7.77s3.49,1.49,3.92,7c3.06,2.19,6,3.86,8.34,6.11,1.51,1.45,2.41,3.67,3.21,5.7A3.86,3.86,0,0,1,141,73c-2.12.71-4.09-.34-5-2.69-2-4.81-5.73-6.81-10.54-5.59-2.15.54-3.73,1.69-4,4.05A4.51,4.51,0,0,0,124,73.83c2.3,1,4.73,1.79,7.09,2.69a42.61,42.61,0,0,1,5,2,11.31,11.31,0,0,1,6.33,10.6,11.49,11.49,0,0,1-7,10.71c-1.17.55-2.41,1-3.73,1.49,0,1,.07,2,0,2.93a3.91,3.91,0,0,1-3.85,3.71c-2,0-4.1-1.52-3.88-3.59.32-3-1.14-4-3.54-5a14.92,14.92,0,0,1-7.91-8.66c-1-2.49-.18-4.6,2-5.51s4,0,5.19,2.36c2.58,5,6.74,7,11.44,5.55a4.31,4.31,0,0,0,3.45-4,3.86,3.86,0,0,0-2.78-3.93c-2.66-1-5.4-1.88-8.08-2.85-5.64-2-9.66-5.59-10.22-11.92-.54-6.1,2.79-11,8.57-13.12Z" transform="translate(-2.22 -26)"/><circle class="cls-3" cx="126.28" cy="53.5" r="48"/></g></svg>