<svg xmlns="http://www.w3.org/2000/svg" viewBox="0 0 238.44 150.35"><title>greenicon_creditcard_BLACK</title><g id="Layer_1" data-name="Layer 1"><path d="M232.87,71.65a3.57,3.57,0,0,1,3.57,3.57V196.43a3.57,3.57,0,0,1-3.57,3.57H23.57A3.57,3.57,0,0,1,20,196.43V75.22a3.57,3.57,0,0,1,3.57-3.57h209.3m0-11H23.57A14.57,14.57,0,0,0,9,75.22V196.43A14.57,14.57,0,0,0,23.57,211h209.3a14.57,14.57,0,0,0,14.57-14.57V75.22a14.57,14.57,0,0,0-14.57-14.57Z" transform="translate(-9 -60.65)"/></g><g id="Layer_2" data-name="Layer 2"><polygon points="229 32.35 5 32.35 5 54.35 229 54.35 229 32.35 229 32.35"/><circle cx="47" cy="102.35" r="17.5"/><path d="M56,151a12,12,0,1,1-12,12,12,12,0,0,1,12-12m0-11a23,23,0,1,0,23,23,23,23,0,0,0-23-23Z" transform="translate(-9 -60.65)"/><path d="M81.42,148a15,15,0,1,1-15,15,15,15,0,0,1,15-15m0-8a23,23,0,1,0,23,23,23,23,0,0,0-23-23Z" transform="translate(-9 -60.65)"/></g></svg>