<svg xmlns="http://www.w3.org/2000/svg" viewBox="0 0 249 243.3"><defs><style>.cls-1,.cls-2,.cls-3{fill:none;stroke:#000;stroke-miterlimit:10;}.cls-1{stroke-width:11px;}.cls-2{stroke-width:14px;}.cls-3{stroke-width:17px;}</style></defs><title>greenicon_plane_BLACK</title><g id="everything"><path class="cls-1" d="M234.71,58.18S224.86,32.36,200,23.69" transform="translate(-4 -6)"/><path class="cls-2" d="M244.28,15.13c1.63,1.95,2.11,4.91,1.41,9.16-1.61,9.75-4.1,19.7-8.29,28.62C228.88,71,214,84.48,199.42,98.05c-1.61,1.5-3.55,4.27-3.16,6,2.81,11.89,6.2,23.65,9.54,36l17.27,58.72c3.41,10,.61,16-7,21.82-5.58,4.23-7.88,4.56-11.77-1.12-7.64-11.16-15.09-22.45-22.64-33.67-10.2-15.14-20.42-30.26-30.26-44.84-22.64,16-44.77,31.57-66.68,47.41-1.6,1.15-2.69,4.62-2.21,6.6,3.17,13.06,6.78,26,10.38,39,1,3.52,1.93,7.6-2.55,8.38-2.45.43-6.53-1.93-8.17-4.21-8-11.17-15.3-22.85-23.22-34.1A36.37,36.37,0,0,0,55,199.35a37.66,37.66,0,0,0-4.71-3.8c-11.53-7.72-23.5-14.83-34.95-22.66-2.33-1.59-4.75-5.58-4.31-8,.81-4.36,5-3.44,8.59-2.49,13.28,3.52,26.56,7,39.94,10.13,2,.47,5.58-.6,6.77-2.15,16.22-21.38,32.16-43,48.58-65.07C100,95.74,84.49,85.77,69,75.82c-11.5-7.37-23.06-14.64-34.5-22.1-5.82-3.79-5.48-6-1.15-11.48,5.94-7.46,12.14-10.19,22.37-6.87l60.18,16.86c12.62,3.26,24.67,6.56,36.85,9.3,1.74.39,4.57-1.51,6.12-3.08,13.91-14.18,27.68-28.74,46.26-37.05,9.14-4.1,19.34-6.52,29.32-8.09,4.36-.69,7.4-.23,9.39,1.37Z" transform="translate(-4 -6)"/></g><g id="FrontWindow3"><path class="cls-3" d="M234.54,58.89s-9.74-26.18-34.32-35" transform="translate(-4 -6)"/></g></svg>